<svg xmlns="http://www.w3.org/2000/svg" viewBox="0 0 125 32" width="125" height="32" fill="none"><rect x="1.5" y="1.5" width="29" height="29" rx="8" stroke="#ffffff" stroke-width="1.5"/><rect x="8" y="8" width="16" height="16" rx="4.5" stroke="#b6abff" stroke-width="1.5"/><rect x="13" y="13" width="6" height="6" rx="2" fill="#eef35f"/><path transform="translate(42.0 24.00)" fill="#ffffff" d="M6.73 -12.01V-10.09H0.21V-12.01ZM1.97 -14.87H4.33V-3.25Q4.33 -2.52 4.64 -2.18Q4.94 -1.84 5.64 -1.84Q5.83 -1.84 6.13 -1.89Q6.43 -1.93 6.64 -1.98L7.06 -0.08Q6.68 0.04 6.25 0.1Q5.82 0.16 5.41 0.16Q3.77 0.16 2.87 -0.68Q1.97 -1.52 1.97 -3.05ZM11 -7.12V0H8.64V-16.01H10.98V-9.07H10.67Q11.19 -10.68 12.19 -11.42Q13.19 -12.16 14.6 -12.16Q15.83 -12.16 16.75 -11.65Q17.67 -11.13 18.19 -10.12Q18.7 -9.12 18.7 -7.63V0H16.33V-7.34Q16.33 -8.63 15.65 -9.37Q14.97 -10.1 13.8 -10.1Q13 -10.1 12.36 -9.75Q11.73 -9.4 11.36 -8.74Q11 -8.07 11 -7.12ZM26.61 0.25Q24.83 0.25 23.55 -0.52Q22.26 -1.28 21.57 -2.67Q20.88 -4.05 20.88 -5.92Q20.88 -7.77 21.56 -9.17Q22.24 -10.58 23.48 -11.37Q24.73 -12.16 26.4 -12.16Q27.43 -12.16 28.39 -11.82Q29.35 -11.49 30.11 -10.77Q30.88 -10.05 31.32 -8.9Q31.77 -7.75 31.77 -6.13V-5.29H22.19V-7.05H30.55L29.45 -6.47Q29.45 -7.57 29.1 -8.41Q28.76 -9.26 28.09 -9.73Q27.41 -10.21 26.41 -10.21Q25.41 -10.21 24.7 -9.72Q23.99 -9.24 23.62 -8.45Q23.24 -7.66 23.24 -6.73V-5.53Q23.24 -4.29 23.67 -3.44Q24.09 -2.58 24.86 -2.14Q25.62 -1.7 26.63 -1.7Q27.29 -1.7 27.83 -1.89Q28.37 -2.08 28.76 -2.46Q29.15 -2.85 29.36 -3.41L31.58 -2.88Q31.29 -1.95 30.61 -1.24Q29.93 -0.54 28.91 -0.14Q27.9 0.25 26.61 0.25ZM32.87 0 38.57 -16.01H41.58L47.37 0H44.72L41.61 -8.9Q41.24 -9.99 40.81 -11.46Q40.38 -12.93 39.81 -14.99H40.3Q39.74 -12.91 39.31 -11.43Q38.88 -9.94 38.55 -8.9L35.52 0ZM35.96 -4.22V-6.26H44.28V-4.22ZM53.16 0.15Q51.94 0.15 51.02 -0.36Q50.09 -0.88 49.58 -1.89Q49.07 -2.9 49.07 -4.38V-12.01H51.43V-4.67Q51.43 -3.38 52.11 -2.64Q52.79 -1.91 53.97 -1.91Q54.77 -1.91 55.4 -2.26Q56.03 -2.61 56.4 -3.28Q56.76 -3.95 56.76 -4.89V-12.01H59.13V0H56.87L56.85 -2.94H57.09Q56.56 -1.31 55.55 -0.58Q54.54 0.15 53.16 0.15ZM67.01 -12.01V-10.09H60.49V-12.01ZM62.25 -14.87H64.61V-3.25Q64.61 -2.52 64.91 -2.18Q65.22 -1.84 65.92 -1.84Q66.1 -1.84 66.4 -1.89Q66.7 -1.93 66.92 -1.98L67.34 -0.08Q66.96 0.04 66.53 0.1Q66.1 0.16 65.68 0.16Q64.04 0.16 63.14 -0.68Q62.25 -1.52 62.25 -3.05ZM71.28 -7.12V0H68.91V-16.01H71.26V-9.07H70.95Q71.47 -10.68 72.47 -11.42Q73.46 -12.16 74.88 -12.16Q76.11 -12.16 77.03 -11.65Q77.95 -11.13 78.46 -10.12Q78.97 -9.12 78.97 -7.63V0H76.6V-7.34Q76.6 -8.63 75.93 -9.37Q75.25 -10.1 74.07 -10.1Q73.27 -10.1 72.64 -9.75Q72 -9.4 71.64 -8.74Q71.28 -8.07 71.28 -7.12Z"/></svg>
